<svg width="32" height="33" viewBox="0 0 32 33" fill="none" xmlns="http://www.w3.org/2000/svg">
<g id="Frame 141">
<circle id="Ellipse 9" cx="16" cy="16.25" r="16" fill="#EAFFF9" fill-opacity="0.29"/>
<path id="Vector" d="M11.4375 23.875C10.9906 23.875 10.6079 23.7158 10.2894 23.3973C9.97094 23.0788 9.81196 22.6963 9.8125 22.25V11.6875H9V10.0625H13.0625V9.25H17.9375V10.0625H22V11.6875H21.1875V22.25C21.1875 22.6969 21.0283 23.0796 20.7098 23.3981C20.3913 23.7166 20.0088 23.8755 19.5625 23.875H11.4375ZM19.5625 11.6875H11.4375V22.25H19.5625V11.6875ZM13.0625 20.625H14.6875V13.3125H13.0625V20.625ZM16.3125 20.625H17.9375V13.3125H16.3125V20.625Z" fill="#A4C8BE"/>
</g>
</svg>
