<svg width="32" height="33" viewBox="0 0 32 33" fill="none" xmlns="http://www.w3.org/2000/svg">
<g id="Frame 140">
<circle id="Ellipse 9" cx="16" cy="16.25" r="16" fill="#EAFFF9" fill-opacity="0.29"/>
<path id="Vector" d="M10.7143 25.25C10.2429 25.25 9.83914 25.082 9.50314 24.746C9.16714 24.41 8.99943 24.0066 9 23.5357V14.9643C9 14.4929 9.168 14.0891 9.504 13.7531C9.84 13.4171 10.2434 13.2494 10.7143 13.25H11.5714V11.5357C11.5714 10.35 11.9894 9.33914 12.8254 8.50314C13.6614 7.66714 14.672 7.24943 15.8571 7.25C17.0429 7.25 18.0537 7.668 18.8897 8.504C19.7257 9.34 20.1434 10.3506 20.1429 11.5357V13.25H21C21.4714 13.25 21.8751 13.418 22.2111 13.754C22.5471 14.09 22.7149 14.4934 22.7143 14.9643V23.5357C22.7143 24.0071 22.5463 24.4109 22.2103 24.7469C21.8743 25.0829 21.4709 25.2506 21 25.25H10.7143ZM10.7143 23.5357H21V14.9643H10.7143V23.5357ZM15.8571 20.9643C16.3286 20.9643 16.7323 20.7963 17.0683 20.4603C17.4043 20.1243 17.572 19.7209 17.5714 19.25C17.5714 18.7786 17.4034 18.3749 17.0674 18.0389C16.7314 17.7029 16.328 17.5351 15.8571 17.5357C15.3857 17.5357 14.982 17.7037 14.646 18.0397C14.31 18.3757 14.1423 18.7791 14.1429 19.25C14.1429 19.7214 14.3109 20.1251 14.6469 20.4611C14.9829 20.7971 15.3863 20.9649 15.8571 20.9643ZM13.2857 13.25H18.4286V11.5357C18.4286 10.8214 18.1786 10.2143 17.6786 9.71429C17.1786 9.21429 16.5714 8.96429 15.8571 8.96429C15.1429 8.96429 14.5357 9.21429 14.0357 9.71429C13.5357 10.2143 13.2857 10.8214 13.2857 11.5357V13.25Z" fill="#A4C8BE"/>
</g>
</svg>
